<svg height='100px' width='100px'  fill="#F3F3F3" xmlns="http://www.w3.org/2000/svg" xmlns:xlink="http://www.w3.org/1999/xlink" version="1.1" x="0px" y="0px" viewBox="0 0 100 100" enable-background="new 0 0 100 100" xml:space="preserve"><path fill="#F3F3F3" d="M86.514,57.932l0.221,0.022c-4.244-1.856-9.006-4.95-11.895-10.045l-0.11-0.231  c-0.415-1.031-0.875-2.012-1.367-2.915L57.827,13.124c-2.041-4.713-5.914-8.328-10.666-10c-1.95-0.686-3.975-1.034-6.021-1.034  c-6.867,0-13.08,3.9-16.146,9.905l-9.355,2.319c-0.001,0-0.002,0-0.004,0.001c-4.358,1.081-1.253,3.163-1.253,3.163l8.781,4.971  c0.577,4.561,2.867,8.855,6.542,11.847l-0.023-0.004c0,0,2.296,1.887,0,4.59c-0.013,0.016-0.023,0.029-0.036,0.044  c-2.715,2.817-4.757,6.125-6.071,9.858C18.571,63.006,26.069,78.647,40.29,83.65c1.58,0.556,3.201,0.956,4.84,1.214v9.453h-9.898  h-0.275c-1.063,0-1.925,0.861-1.925,1.925s0.862,1.925,1.925,1.925h0.275h9.898h11.548h9.349h0.824c1.063,0,1.925-0.861,1.925-1.925  s-0.861-1.925-1.925-1.925h-0.824h-7.699V83.905c2.542-0.664,5.734-1.704,9.286-3.323c0.145-0.073,0.316-0.154,0.52-0.241  c0.341-0.159,0.685-0.324,1.03-0.494c2.392-1.359-1.611-1.516-1.611-1.516c-6.865,0-14.783-2.104-21.698-9.354  C32.805,55.295,36.998,41.79,39.232,36.88c0.018-0.032,1.048-1.915,2.637-0.887c1.338,0.867,0.858,2.361,0.664,2.83  c-1.936,4.286-5.252,15.591,6.104,27.5c9.56,10.021,21.143,8.923,28.047,6.945c0.004-0.002,0.007-0.003,0.012-0.004  c5.306-1.808,0.668-1.995,0.668-1.995l0.002-0.002c-0.593,0.032-1.183,0.05-1.765,0.05c-4.379,0-8.426-0.898-12.115-2.695  c-8.158-3.976-12.242-11.238-13.841-14.832c-0.036-0.089-0.739-2.143,1.044-2.71c1.573-0.498,2.318,0.809,2.479,1.137  c0.01,0.021,0.02,0.044,0.029,0.066c0.002,0.001,0.004,0.007,0.004,0.007l0,0c1.407,3.104,5.019,9.504,12.008,12.893  c5.78,2.803,12.704,3.011,20.612,0.653c2.782-1.11,0.641-1.376,0.641-1.376s-0.009-0.011-0.023-0.028  c-1.301,0.229-2.551,0.338-3.74,0.338c-7.153,0-12.249-3.694-14.606-5.841c-0.029-0.029-1.499-1.475,0.001-2.688l0.002-0.002  c1.231-0.993,2.531-0.122,2.979,0.242c0.054,0.047,0.104,0.093,0.16,0.142h0.002c2.544,2.186,7.965,5.599,15.606,3.798  C88.897,59.505,86.514,57.932,86.514,57.932z M23.154,18.025l-1.977-1.119l2.264-0.561C23.319,16.902,23.221,17.462,23.154,18.025z   M48.979,85.196c1.104,0.017,2.21-0.029,3.312-0.148c0.057-0.004,0.843-0.066,2.188-0.299v9.568h-5.499V85.196z M36.68,20.764  c-2.995,0-5.432-2.437-5.432-5.431c0-2.995,2.437-5.432,5.432-5.432c2.996,0,5.433,2.437,5.433,5.432  C42.113,18.327,39.676,20.764,36.68,20.764z"></path><circle fill="#F3F3F3" cx="36.68" cy="15.332" r="1.585"></circle></svg>