<svg xmlns="http://www.w3.org/2000/svg" xmlns:xlink="http://www.w3.org/1999/xlink" width="100" height="100" viewBox="0 0 100 100"><rect width="100%" height="100%" fill="#FFFFFF"></rect><g transform="translate(50 50) scale(0.69 0.69) rotate(0) translate(-50 -50)" style="fill:#0283B3"><svg fill="#0283B3" xmlns="http://www.w3.org/2000/svg" xmlns:xlink="http://www.w3.org/1999/xlink" version="1.1" x="0px" y="0px" viewBox="0 0 32 32" enable-background="new 0 0 32 32" xml:space="preserve"><g display="none"><rect x="-332.667" y="-164.339" display="inline" fill="#0283B3" width="416.333" height="207.667"></rect></g><g display="none"><g display="inline"><path fill="#0283B3" d="M23.183,9.163c1.26,0,2.285,1.025,2.285,2.285s-1.025,2.285-2.285,2.285s-2.285-1.025-2.285-2.285    S21.923,9.163,23.183,9.163 M23.183,8.663c-1.538,0-2.785,1.247-2.785,2.785c0,1.538,1.247,2.785,2.785,2.785    c1.538,0,2.785-1.247,2.785-2.785C25.968,9.909,24.721,8.663,23.183,8.663L23.183,8.663z"></path></g><line display="inline" fill="#0283B3" stroke="#0283B3" stroke-width="0.5" stroke-miterlimit="10" x1="10.005" y1="19.714" x2="22.005" y2="19.714"></line><path display="inline" fill="#0283B3" stroke="#0283B3" stroke-width="0.5" stroke-miterlimit="10" d="M18.598,20.006v2.613   c0,1.426-1.167,2.593-2.593,2.593h0c-1.426,0-2.593-1.167-2.593-2.593v-2.613"></path><g display="inline"><g><g><path fill="#0283B3" d="M27.869,0.483c2.005,0,3.631,1.626,3.631,3.631v23.772c0,2.005-1.626,3.631-3.631,3.631H4.131      c-2.005,0-3.631-1.626-3.631-3.631V4.114c0-2.005,1.626-3.631,3.631-3.631H27.869 M27.869-0.017H4.131      C1.853-0.017,0,1.836,0,4.114v23.772c0,2.278,1.853,4.131,4.131,4.131h23.739c2.278,0,4.131-1.853,4.131-4.131V4.114      C32,1.836,30.147-0.017,27.869-0.017L27.869-0.017z"></path></g><path fill="#0283B3" stroke="#0283B3" stroke-width="0.5" stroke-miterlimit="10" d="M29.203,31.561     c-2.92-1.967-7.74-3.256-13.203-3.256S5.717,29.593,2.797,31.561"></path><g><path fill="#0283B3" stroke="#0283B3" stroke-width="0.5" stroke-miterlimit="10" d="M2.797,0.439      C5.717,2.407,10.537,3.696,16,3.696s10.283-1.289,13.203-3.256"></path><path fill="#0283B3" stroke="#0283B3" stroke-width="0.5" stroke-miterlimit="10" d="M29.203,0.439      C26.283,2.407,21.463,3.696,16,3.696S5.717,2.407,2.797,0.439"></path></g></g><path fill="#0283B3" stroke="#0283B3" stroke-width="0.5" stroke-miterlimit="10" d="M0.505,15.232c0,0,11.808,1.176,19.033-11.721"></path><g><path fill="#0283B3" d="M9.767,17.279c-1.027,0-1.945-0.688-2.231-1.671l-1.236-4.256c-0.173-0.593-0.103-1.219,0.197-1.763     c0.299-0.545,0.79-0.939,1.382-1.111l4.548-1.322c0.21-0.062,0.427-0.092,0.644-0.092c1.028,0,1.945,0.688,2.231,1.671     l1.236,4.256c0.173,0.593,0.103,1.219-0.197,1.764c-0.299,0.545-0.79,0.939-1.382,1.111l-4.548,1.321     C10.2,17.249,9.983,17.279,9.767,17.279z"></path><path fill="#0283B3" d="M13.069,7.314c0.917,0,1.736,0.613,1.992,1.491l1.237,4.256c0.318,1.096-0.314,2.246-1.41,2.565     l-4.548,1.322c-0.187,0.054-0.38,0.082-0.573,0.082c-0.917,0-1.736-0.613-1.992-1.491l-1.237-4.256     c-0.318-1.096,0.314-2.246,1.41-2.565l4.548-1.322C12.683,7.341,12.876,7.314,13.069,7.314 M13.069,6.814     c-0.236,0-0.475,0.033-0.712,0.102L7.808,8.237c-1.357,0.394-2.144,1.827-1.75,3.184l1.237,4.256     c0.325,1.12,1.358,1.852,2.472,1.852c0.236,0,0.475-0.033,0.712-0.102l4.548-1.322c1.357-0.394,2.144-1.827,1.75-3.184     l-1.237-4.256C15.215,7.546,14.183,6.814,13.069,6.814L13.069,6.814z"></path></g></g></g><g display="none"><g display="inline"><path d="M23.183,9.663c0.984,0,1.785,0.801,1.785,1.785s-0.801,1.785-1.785,1.785s-1.785-0.801-1.785-1.785    S22.199,9.663,23.183,9.663 M23.183,8.663c-1.538,0-2.785,1.247-2.785,2.785c0,1.538,1.247,2.785,2.785,2.785    c1.538,0,2.785-1.247,2.785-2.785C25.968,9.909,24.721,8.663,23.183,8.663L23.183,8.663z"></path></g><line display="inline" fill="none" stroke="#0283B3" stroke-miterlimit="10" x1="10.005" y1="19.714" x2="22.005" y2="19.714"></line><path display="inline" fill="none" stroke="#0283B3" stroke-miterlimit="10" d="M18.598,20.006v2.613   c0,1.426-1.167,2.593-2.593,2.593h0c-1.426,0-2.593-1.167-2.593-2.593v-2.613"></path><g display="inline"><g><g><path d="M27.488,0.999C29.428,0.999,31,2.571,31,4.51V27.49c0,1.94-1.572,3.512-3.512,3.512H4.512      C2.572,31.001,1,29.429,1,27.49V4.51c0-1.94,1.572-3.512,3.512-3.512H27.488 M27.488-0.001H4.512C2.024-0.001,0,2.023,0,4.51      V27.49c0,2.488,2.024,4.512,4.512,4.512h22.976c2.488,0,4.512-2.024,4.512-4.512V4.51C32,2.023,29.976-0.001,27.488-0.001      L27.488-0.001z"></path></g><path fill="none" stroke="#0283B3" stroke-miterlimit="10" d="M28.777,31.044c-2.826-1.902-7.491-3.148-12.777-3.148     s-9.951,1.246-12.777,3.148"></path><g><path fill="none" stroke="#0283B3" stroke-miterlimit="10" d="M3.223,0.956C6.049,2.858,10.713,4.104,16,4.104      s9.951-1.246,12.777-3.148"></path><path fill="none" stroke="#0283B3" stroke-miterlimit="10" d="M28.777,0.956C25.951,2.858,21.287,4.104,16,4.104      S6.049,2.858,3.223,0.956"></path></g></g><g><path fill="none" stroke="#0283B3" stroke-miterlimit="10" d="M0.505,15.232c0,0,11.576,1.583,18.801-11.314"></path><g><path fill="#0283B3" d="M9.767,17.029c-0.917,0-1.736-0.613-1.991-1.491l-1.236-4.256c-0.154-0.528-0.092-1.086,0.176-1.572      S7.42,8.872,7.948,8.718l4.548-1.322c0.188-0.055,0.38-0.082,0.573-0.082c0.917,0,1.736,0.613,1.991,1.491l1.236,4.256      c0.154,0.528,0.092,1.086-0.176,1.572s-0.705,0.839-1.233,0.992l-4.548,1.321C10.153,17.002,9.96,17.029,9.767,17.029z"></path><path d="M13.069,7.814c0.696,0,1.318,0.465,1.512,1.131l1.237,4.256c0.241,0.831-0.238,1.703-1.069,1.945L10.2,16.467      c-0.142,0.041-0.287,0.062-0.433,0.062c-0.696,0-1.318-0.465-1.512-1.131l-1.237-4.256c-0.241-0.831,0.238-1.703,1.069-1.945      l4.548-1.322C12.777,7.835,12.923,7.814,13.069,7.814 M13.069,6.814c-0.236,0-0.475,0.033-0.712,0.102L7.808,8.237      c-1.357,0.394-2.144,1.827-1.75,3.184l1.237,4.256c0.325,1.12,1.358,1.852,2.472,1.852c0.236,0,0.475-0.033,0.712-0.102      l4.548-1.322c1.357-0.394,2.144-1.827,1.75-3.184l-1.237-4.256C15.215,7.546,14.183,6.814,13.069,6.814L13.069,6.814z"></path></g></g></g></g><g><g><path d="M3.694,31.919c0.266,0.049,0.538,0.083,0.818,0.083h22.976c0.28,0,0.552-0.034,0.818-0.083    c-3.039-1.724-7.532-2.743-12.306-2.743S6.733,30.195,3.694,31.919z"></path><path d="M4.512-0.001c-0.28,0-0.552,0.034-0.818,0.083C6.733,1.805,11.226,2.824,16,2.824c4.775,0,9.268-1.019,12.306-2.743    c-0.266-0.049-0.538-0.083-0.818-0.083H4.512z"></path><path d="M13.069,7.814c-0.146,0-0.292,0.021-0.433,0.062L8.088,9.198c-0.831,0.242-1.31,1.114-1.069,1.945l1.237,4.256    c0.194,0.666,0.815,1.131,1.512,1.131c0.146,0,0.292-0.021,0.433-0.062l4.548-1.322c0.831-0.242,1.31-1.114,1.069-1.945    l-1.237-4.256C14.387,8.279,13.765,7.814,13.069,7.814z"></path><path d="M6.88,14.249l-0.822-2.828c-0.394-1.357,0.393-2.79,1.75-3.184l4.548-1.322c0.237-0.069,0.477-0.102,0.712-0.102    c1.114,0,2.146,0.732,2.472,1.852l0.014,0.048c1.33-1.38,2.615-3.054,3.804-5.067C18.261,3.756,17.14,3.824,16,3.824    c-5.327,0-10.352-1.239-13.532-3.313C1.01,1.26,0,2.762,0,4.51v10.7C0.784,15.269,3.492,15.362,6.88,14.249z"></path><circle cx="23.183" cy="11.447" r="1.785"></circle><path d="M16.005,24.712c1.154,0,2.093-0.938,2.093-2.092v-2.405h-4.186v2.405C13.912,23.773,14.851,24.712,16.005,24.712z"></path><path d="M29.531,0.511c-2.237,1.459-5.395,2.493-8.922,2.985c-1.459,2.616-3.078,4.686-4.732,6.33l0.9,3.096    c0.394,1.357-0.393,2.79-1.75,3.184l-4.548,1.322c-0.237,0.069-0.477,0.102-0.712,0.102c-1.114,0-2.146-0.732-2.472-1.852    l-0.125-0.43c-0.002,0-0.003,0.001-0.005,0.002c-2.575,0.838-4.771,1.006-6.117,1.006c-0.455,0-0.805-0.019-1.048-0.038V27.49    c0,1.749,1.01,3.251,2.468,4c3.18-2.075,8.205-3.314,13.532-3.314c5.327,0,10.352,1.239,13.531,3.314    c1.458-0.749,2.469-2.251,2.469-4V4.51C32,2.762,30.99,1.259,29.531,0.511z M22.005,20.215h-2.907v2.405    c0,1.705-1.388,3.092-3.093,3.092s-3.093-1.387-3.093-3.092v-2.405h-2.907v-1h12V20.215z M23.183,14.232    c-1.538,0-2.785-1.247-2.785-2.785c0-1.538,1.247-2.785,2.785-2.785s2.785,1.247,2.785,2.785    C25.968,12.985,24.721,14.232,23.183,14.232z"></path></g></g><g display="none"><circle display="inline" fill="#0283B3" cx="23.178" cy="11.447" r="2.785"></circle><rect x="10" y="18.715" display="inline" fill="#0283B3" width="12" height="2"></rect><path display="inline" fill="#0283B3" d="M16,26.212c-1.981,0-3.593-1.611-3.593-3.592v-2.614h2v2.614   c0,0.878,0.715,1.592,1.593,1.592s1.593-0.714,1.593-1.592v-2.614h2v2.614C19.593,24.6,17.981,26.212,16,26.212z"></path><g display="inline"><path fill="#0283B3" d="M15.028,16.106l-4.548,1.322c-1.357,0.394-2.79-0.393-3.184-1.75l-1.237-4.256    c-0.394-1.357,0.393-2.79,1.75-3.184l4.548-1.322c1.357-0.394,2.79,0.393,3.184,1.75l1.237,4.256    C17.172,14.278,16.385,15.711,15.028,16.106z"></path><g><path fill="#0283B3" stroke="#0283B3" stroke-width="2" stroke-miterlimit="10" d="M27.488,31H4.512C2.572,31,1,29.428,1,27.488     V4.512C1,2.572,2.572,1,4.512,1h22.977C29.428,1,31,2.572,31,4.512v22.977C31,29.428,29.428,31,27.488,31z"></path><g><g><path fill="#0283B3" stroke="#0283B3" stroke-width="2" stroke-miterlimit="10" d="M3.703,30.492       C6.423,28.66,10.912,27.46,16,27.46s9.577,1.201,12.297,3.033"></path><path fill="#0283B3" stroke="#0283B3" stroke-width="2" stroke-miterlimit="10" d="M28.297,30.492       C25.577,28.66,21.088,27.46,16,27.46S6.423,28.66,3.703,30.492"></path></g><g><path fill="#0283B3" stroke="#0283B3" stroke-width="2" stroke-miterlimit="10" d="M3.703,1.508C6.423,3.34,10.912,4.54,16,4.54       s9.577-1.201,12.297-3.033"></path><path fill="#0283B3" stroke="#0283B3" stroke-width="2" stroke-miterlimit="10" d="M28.297,1.508C25.577,3.34,21.088,4.54,16,4.54       S6.423,3.34,3.703,1.508"></path></g></g></g><path fill="#0283B3" stroke="#0283B3" stroke-width="2" stroke-miterlimit="10" d="M0.505,15.232c0,0,11.668,1.582,18.893-11.316"></path></g></g></svg></g></svg>